<svg width="105" height="102" viewBox="0 0 105 102" fill="none" xmlns="http://www.w3.org/2000/svg">
<path d="M66.994 87.1111C48.7349 80.2362 26.4182 57.8294 26.4182 31.6031C26.4182 24.601 32.8849 19.6358 38.8445 22.6913C50.0029 28.5477 49.7493 40.2603 60.654 43.3158C73.334 46.8806 82.5903 37.0775 82.8439 26.3834C83.0975 13.9068 71.432 0.539062 52.6656 0.539062C26.4182 0.539062 19.1906 16.835 19.1906 30.0754C19.1906 57.4474 41.3805 86.2199 59.2592 95.641C96.1578 115.12 114.163 83.6737 99.5814 75.5257C89.9447 70.1786 85.7603 94.2405 66.994 87.1111ZM0.804688 75.5257C0.804688 94.4952 16.2742 101.243 31.2365 101.243C60.654 101.243 79.6739 81.1274 79.6739 64.9588C79.6739 56.3016 74.4751 47.7717 64.9652 47.7717C51.2709 47.7717 28.7006 77.5627 16.2742 77.5627C4.86227 77.5627 9.68065 65.5954 18.303 58.8479C20.5854 57.0655 22.8678 55.9197 22.4874 54.392C22.107 52.8642 19.3174 53.6281 18.0494 54.01C5.11587 57.9567 0.804688 69.2874 0.804688 75.5257Z" fill="#F2E6E6"/>
</svg>
