<svg width="1724" height="254" viewBox="0 0 1724 254" fill="none" xmlns="http://www.w3.org/2000/svg">
<path d="M191.279 219.217C148.84 219.217 64.3575 151.789 64.3575 77.6194C64.3575 63.7374 70.3069 53.0283 81.8092 53.0283C108.78 53.0283 117.109 98.6409 144.874 106.574C149.237 107.763 153.599 108.557 157.566 108.557C182.157 108.557 199.212 87.1386 199.609 64.5306C200.402 33.5934 171.448 0.276367 125.042 0.276367C60.3912 0.276367 46.5091 40.7327 46.5091 73.6531C46.5091 141.477 92.1216 205.731 145.27 236.669C166.292 248.964 184.537 253.724 200.402 253.724C236.099 253.724 259.103 231.116 259.103 210.888C259.103 200.575 251.964 189.073 240.065 189.073C215.871 189.073 220.234 219.217 191.279 219.217ZM0.896484 186.693C0.896484 233.495 38.9731 250.551 76.2564 250.551C148.84 250.551 203.178 203.748 203.178 158.136C203.178 133.148 182.95 121.249 159.549 121.249C120.282 121.249 69.9103 194.626 38.9731 194.626C27.0741 194.626 22.7112 185.503 22.7112 177.967C22.7112 166.861 30.2472 154.566 41.3529 145.84C46.9057 141.477 53.6484 139.097 53.6484 135.131C53.6484 133.544 52.4585 131.958 50.4754 131.958C48.0956 131.958 46.1124 132.355 43.7326 133.148C11.6055 143.857 0.896484 171.224 0.896484 186.693Z" fill="#511C06"/>
<path d="M359.951 30.0856L282.762 223.991H330.519L341.639 194.906H413.33L424.353 223.991H473.221L395.769 30.0856H359.951ZM356.577 155.847L362.727 139.781C368.655 124.642 373.736 109.033 377.998 92.9664C381.886 109.033 386.703 124.642 392.437 139.781L398.531 155.847H356.577Z" fill="#511C06"/>
<path d="M590.018 100.446C590.018 116.692 590.671 133.036 591.962 149.476C584.368 134.892 576.135 120.764 567.25 107.094L516.716 30.0856H478.677V223.991H523.936V153.908C523.936 137.468 523.283 121.041 521.992 104.601C529.586 119.185 537.818 133.313 546.704 146.983L597.793 223.991H635.276V30.0856H590.018V100.446Z" fill="#511C06"/>
<path d="M775.938 42.6894C760.847 34.2822 744.049 30.0856 725.543 30.0856H657.517V223.991H725.543C744.049 223.991 760.847 219.795 775.938 211.388C791.029 202.98 802.913 191.304 811.617 176.346C820.322 161.388 824.667 144.67 824.667 126.207C824.667 107.745 820.322 91.7615 811.617 77.177C802.913 62.5925 791.029 51.0966 775.938 42.6894ZM771.912 154.185C767.65 162.496 761.736 169.047 754.142 173.853C746.548 178.659 738.038 181.055 728.597 181.055H702.775V73.0218H728.597C738.218 73.0218 746.784 75.3349 754.281 79.9471C761.778 84.5592 767.65 90.8889 771.912 98.9221C776.174 106.955 778.298 116.055 778.298 126.207C778.298 136.36 776.174 145.875 771.912 154.185Z" fill="#511C06"/>
<path d="M839.022 223.991H884.28V152.523H952.862V109.587H884.28V73.0218H961.191V30.0856H839.022V223.991Z" fill="#511C06"/>
<path d="M1119.55 40.0578C1104.19 31.3736 1087.07 27.0385 1068.19 27.0385C1049.31 27.0385 1031.91 31.3736 1016.54 40.0578C1001.17 48.7421 989.096 60.7365 980.308 76.0689C971.52 91.4013 967.12 108.382 967.12 127.038C967.12 145.695 971.52 162.911 980.308 178.146C989.096 193.382 1001.17 205.335 1016.54 214.019C1031.91 222.703 1049.13 227.038 1068.19 227.038C1087.25 227.038 1104.19 222.703 1119.55 214.019C1134.92 205.335 1147.04 193.382 1155.93 178.146C1164.81 162.911 1169.25 145.875 1169.25 127.038C1169.25 108.202 1164.81 91.4013 1155.93 76.0689C1147.04 60.7365 1134.92 48.7421 1119.55 40.0578ZM1115.67 155.709C1110.85 164.296 1104.28 171.041 1095.95 175.93C1087.62 180.82 1078.36 183.271 1068.19 183.271C1058.01 183.271 1048.71 180.82 1040.28 175.93C1031.86 171.041 1025.25 164.296 1020.43 155.709C1015.61 147.122 1013.21 137.565 1013.21 127.038C1013.21 116.512 1015.61 106.955 1020.43 98.3681C1025.23 89.7808 1031.86 83.0357 1040.28 78.1465C1048.71 73.2573 1058.01 70.8058 1068.19 70.8058C1078.36 70.8058 1087.62 73.2573 1095.95 78.1465C1104.28 83.0357 1110.85 89.7808 1115.67 98.3681C1120.47 106.955 1122.89 116.512 1122.89 127.038C1122.89 137.565 1120.48 147.122 1115.67 155.709Z" fill="#511C06"/>
<path d="M1330.21 40.0578C1314.84 31.3736 1297.73 27.0385 1278.85 27.0385C1259.97 27.0385 1242.57 31.3736 1227.2 40.0578C1211.83 48.7421 1199.76 60.7365 1190.97 76.0689C1182.18 91.4013 1177.78 108.382 1177.78 127.038C1177.78 145.695 1182.18 162.911 1190.97 178.146C1199.76 193.382 1211.83 205.335 1227.2 214.019C1242.57 222.703 1259.78 227.038 1278.85 227.038C1297.91 227.038 1314.84 222.703 1330.21 214.019C1345.58 205.335 1357.7 193.382 1366.59 178.146C1375.47 162.911 1379.91 145.875 1379.91 127.038C1379.91 108.202 1375.47 91.4013 1366.59 76.0689C1357.7 60.7365 1345.58 48.7421 1330.21 40.0578ZM1326.33 155.709C1321.51 164.296 1314.94 171.041 1306.61 175.93C1298.28 180.82 1289.02 183.271 1278.85 183.271C1268.67 183.271 1259.37 180.82 1250.94 175.93C1242.51 171.041 1235.91 164.296 1231.09 155.709C1226.27 147.122 1223.87 137.565 1223.87 127.038C1223.87 116.512 1226.27 106.955 1231.09 98.3681C1235.91 89.7808 1242.51 83.0357 1250.94 78.1465C1259.37 73.2573 1268.67 70.8058 1278.85 70.8058C1289.02 70.8058 1298.28 73.2573 1306.61 78.1465C1314.94 83.0357 1321.51 89.7808 1326.33 98.3681C1331.14 106.955 1333.54 116.512 1333.54 127.038C1333.54 137.565 1331.14 147.122 1326.33 155.709Z" fill="#511C06"/>
<path d="M1513.3 42.6894C1498.21 34.2822 1481.41 30.0856 1462.91 30.0856H1394.88V223.991H1462.91C1481.41 223.991 1498.21 219.795 1513.3 211.388C1528.39 202.98 1540.28 191.304 1548.98 176.346C1557.68 161.388 1562.03 144.67 1562.03 126.207C1562.03 107.745 1557.68 91.7615 1548.98 77.177C1540.28 62.5925 1528.39 51.0966 1513.3 42.6894ZM1509.27 154.185C1505.01 162.496 1499.1 169.047 1491.5 173.853C1483.91 178.659 1475.4 181.055 1465.96 181.055H1440.14V73.0218H1465.96C1475.58 73.0218 1484.15 75.3349 1491.64 79.9471C1499.14 84.5592 1505.01 90.8889 1509.27 98.9221C1513.54 106.955 1515.66 116.055 1515.66 126.207C1515.66 136.36 1513.54 145.875 1509.27 154.185Z" fill="#511C06"/>
<path d="M1708.66 126.623C1698.94 117.482 1686.77 111.152 1672.15 107.648L1641.33 100.169C1635.22 98.6867 1630.54 96.706 1627.31 94.213C1624.07 91.7199 1622.45 88.5343 1622.45 84.6562C1622.45 81.8861 1623.28 79.4346 1624.95 77.3155C1626.61 75.1963 1628.93 73.5343 1631.89 72.3293C1634.85 71.1243 1638.37 70.5288 1642.44 70.5288C1650.03 70.5288 1656.5 72.4678 1661.88 76.3459C1667.25 80.2241 1670.3 85.4041 1671.04 91.8584L1717.68 85.7642C1715.64 71.7337 1710.84 60.321 1703.25 51.5537C1695.65 42.7864 1686.77 36.4983 1676.59 32.7171C1666.42 28.936 1655.77 27.0385 1644.66 27.0385C1631.71 27.0385 1619.91 29.5315 1609.26 34.5177C1598.61 39.5038 1590.2 46.6091 1583.99 55.8473C1577.79 65.0855 1574.69 75.695 1574.69 87.7033C1574.69 103.036 1579.27 114.892 1588.44 123.299C1597.6 131.706 1609.3 137.662 1623.56 141.166L1654.66 148.645C1660.76 150.127 1665.62 152.246 1669.23 155.016C1672.84 157.786 1674.65 161.387 1674.65 165.82C1674.65 169.324 1673.58 172.426 1671.45 175.099C1669.32 177.773 1666.28 179.85 1662.29 181.332C1658.31 182.814 1653.64 183.548 1648.27 183.548C1637.16 183.548 1628.6 181.014 1622.59 175.93C1616.58 170.847 1613.19 164.255 1612.45 156.124L1564.7 161.387C1565.99 174.864 1570.29 186.554 1577.61 196.429C1584.92 206.304 1594.68 213.881 1606.9 219.144C1619.12 224.407 1632.9 227.038 1648.27 227.038C1663.64 227.038 1676.45 224.31 1687.84 218.867C1699.22 213.424 1707.97 205.847 1714.08 196.152C1720.18 186.457 1723.24 175.515 1723.24 163.327C1723.24 147.994 1718.38 135.764 1708.66 126.623Z" fill="#511C06"/>
</svg>
